<svg width="64" height="64" xmlns="http://www.w3.org/2000/svg">

 <title/>
 <g>
  <title>background</title>
  <rect fill="none" id="canvas_background" height="402" width="582" y="-1" x="-1"/>
 </g>
 <g>
  <title>Layer 1</title>
  <path stroke-width="2px" stroke-linejoin="round" stroke-linecap="round" stroke="#ffffff" fill="none" id="svg_1" d="m13.13,8.63l18.87,7.37l0,40l-18.75,-8.13a2,2 0 0 1 -1.25,-1.87l0,-36a2,2 0 0 1 2,-2l27,0a2,2 0 0 1 2,2l0,36a2,2 0 0 1 -2,2l-9,0" class="cls-1"/>
  <line stroke-width="2px" stroke-linejoin="round" stroke-linecap="round" stroke="#ffffff" fill="none" id="svg_2" y2="33.5" y1="35.06" x2="24.13" x1="27.91" class="cls-1"/>
  <polyline stroke-width="2px" stroke-linejoin="round" stroke-linecap="round" stroke="#ffffff" fill="none" id="svg_3" points="50 32.24 54.24 28 50 23.76" class="cls-1"/>
  <line stroke-width="2px" stroke-linejoin="round" stroke-linecap="round" stroke="#ffffff" fill="none" id="svg_4" y2="28" y1="28" x2="43" x1="54" class="cls-1"/>
 </g>
</svg>