<?xml version="1.0" ?><svg height="60px" version="1.1" viewBox="0 0 60 60" width="60px" xmlns="http://www.w3.org/2000/svg" xmlns:xlink="http://www.w3.org/1999/xlink"><title/><desc/><defs/><g fill="none" fill-rule="evenodd" id="Page-1" stroke="none" stroke-width="1"><g fill-rule="nonzero" id="007---Record"><g id="Icons" transform="translate(1.000000, 1.000000)"><path d="M58,29 C57.9846973,36.6755537 54.9206045,44.0305897 49.4819168,49.4467724 C44.0432292,54.8629552 36.6755511,57.896524 29,57.88 C28.33,57.88 27.66,57.86 27,57.8 C11.8148168,56.8192902 1.57651669e-14,44.216819 1.39888101e-14,29 C1.22124533e-14,13.783181 11.8148168,1.18070975 27,0.2 C27.66,0.14 28.33,0.12 29,0.12 C36.6755511,0.103475955 44.0432292,3.13704484 49.4819168,8.55322756 C54.9206045,13.9694103 57.9846973,21.3244463 58,29 Z" fill="#FC7308" id="Shape"/><ellipse cx="27" cy="29" fill="#FFA800" id="Oval" rx="27" ry="28.79999"/><path d="M55,29 C54.951764,43.3199666 43.3200365,54.8980092 29,54.88 C28.16,54.88 27.33,54.84 26.5,54.76 C13.1870891,53.5358138 3.00007599,42.3690773 3.00007599,29 C3.00007599,15.6309227 13.1870891,4.46418623 26.5,3.24 C27.33,3.16 28.16,3.12 29,3.12 C43.3200433,3.10197426 54.9517805,14.6800265 55,29 Z" fill="#FFA800" id="Shape"/><ellipse cx="26.5" cy="29" fill="#FEDD0A" id="Oval" rx="23.5" ry="25.76001"/><path d="M39,29 C39.0000015,32.0010834 37.6521688,34.8435037 35.3285089,36.742742 C33.004849,38.6419803 29.9510602,39.3972156 27.01,38.8 L26.99,38.8 C22.3383583,37.8435891 18.9999504,33.7489465 18.9999504,29 C18.9999504,24.2510535 22.3383583,20.1564109 26.99,19.2 L27.01,19.2 C29.9510602,18.6027844 33.004849,19.3580197 35.3285089,21.257258 C37.6521688,23.1564963 39.0000015,25.9989166 39,29 Z" fill="#D22047" id="Shape"/><path d="M35,29 C34.9884513,33.7448104 31.6552587,37.8330817 27.01,38.8 L26.99,38.8 C22.3383583,37.8435891 18.9999504,33.7489465 18.9999504,29 C18.9999504,24.2510535 22.3383583,20.1564109 26.99,19.2 L27.01,19.2 C31.6552587,20.1669183 34.9884513,24.2551896 35,29 Z" fill="#DB4E6C" id="Shape"/></g><g fill="#FFFFFF" id="Layer_13" transform="translate(2.000000, 1.000000)"><path d="M30.45,57.87 C19.7910404,58.3836418 9.71612985,52.98292 4.24340019,43.8217804 C-1.22932948,34.6606408 -1.20953185,23.2294893 4.29489728,14.0873611 C9.7993264,4.94523284 19.8928835,-0.420559164 30.55,0.13 C15.145871,0.847513201 3.01788694,13.53155 2.99117961,28.9523574 C2.96447229,44.3731649 15.0484487,57.0991344 30.45,57.87 Z" id="Shape"/></g><g id="Outline"><path d="M16.0625,5.85954 C6.29897817,11.5307177 0.867451531,22.4858264 2.2641,33.6902 C4.13261987,47.7767897 16.2972674,58.2037634 30.50391,57.89606 C37.3608842,57.7107382 43.9194384,55.0515519 48.9693,50.40921 C56.6726139,43.3491532 59.7637298,32.5642258 56.9697725,22.4954995 C54.1758152,12.4267731 45.9692316,4.77682917 35.72937,2.6958 C29.0070992,1.32575722 22.0159601,2.4503971 16.0625,5.85954 L15.0625,4.12754 C21.4401455,0.474040843 28.9302022,-0.731349087 36.13208,0.73677 C47.0891847,2.99279027 55.8621646,11.1912007 58.8540793,21.9706356 C61.845994,32.7500706 58.5535746,44.2973249 50.32672,51.878 C44.9178446,56.8519689 37.8913323,59.6999389 30.54572,59.89559 C19.3492616,60.167393 8.9464666,54.1363202 3.61909003,44.2847408 C-1.70828654,34.4331614 -1.05990617,22.4260142 5.29736,13.2054 C7.83729048,9.49129705 11.1732417,6.39011623 15.0625,4.12749 L16.0625,5.85954 Z" fill="#FFFFFF" id="Shape"/><path d="M36.13208,0.73676 C28.9302061,-0.731382101 21.4401447,0.473997925 15.0625,4.1275 L13.32526,5.24915 L12.45941,5.8139 L11.65076,6.45898 C11.4373854,6.62180782 11.2990886,6.86414131 11.2674323,7.13067364 C11.2357761,7.39720597 11.313462,7.66519188 11.48276,7.87347 C11.8281084,8.29304826 12.4426998,8.3660806 12.87676,8.03912 L13.6303,7.4353 L14.44042,6.9093 L16.0625,5.85956 C22.0159544,2.45040147 29.0070969,1.32575393 35.72937,2.6958 C45.9520337,4.80080655 54.1367306,12.4500995 56.9274694,22.5072205 C59.7182081,32.5643416 56.6455173,43.3374339 48.9693,50.40918 C43.9194463,55.0515382 37.3608895,57.7107362 30.50391,57.89606 C20.0565751,58.1522179 10.3488086,52.5255282 5.37803968,43.3329289 C0.407270798,34.1403297 1.01401525,22.9362131 6.94843,14.33417 L7.49298,13.53705 C7.7979463,13.0954139 7.71301483,12.4936685 7.29773,12.15369 C7.08707063,11.9833131 6.8151928,11.9079179 6.54687271,11.9454677 C6.27855262,11.9830174 6.03781618,12.1301499 5.88202,12.35181 L5.29736,13.20538 C-1.03700334,22.4302272 -1.67329452,34.4250335 3.64956026,44.2682637 C8.97241503,54.1114939 19.3582578,60.1459379 30.54572,59.89563 C37.8913398,59.6999697 44.9178544,56.851981 50.32672,51.87799 C58.5806943,44.3090149 61.8915517,32.749919 58.8964148,21.9588751 C55.9012779,11.1678311 47.1063945,2.96877631 36.13208,0.73676 Z" fill="#000000" id="Shape"/><path d="M8.5827,10.62109 C8.9882097,10.97915 9.5991306,10.9714442 9.99548,10.60327 C10.1759952,10.4198835 10.2789839,10.1740427 10.28308,9.91675 L10.26257,9.72717 C10.2503813,9.66084378 10.2296837,9.59636791 10.20099,9.53534 C10.1819242,9.47455471 10.1540838,9.4168795 10.11835,9.36414 C10.0806939,9.30866448 10.039319,9.25580654 9.99451,9.20593 C9.80893121,9.01624201 9.55650198,8.90669007 9.2912,8.9007 C8.73332269,8.91936219 8.2821242,9.36110311 8.25165,9.91846 C8.25921258,10.0521909 8.29387043,10.1829905 8.35352,10.30292 C8.40832935,10.4229679 8.48619839,10.5310733 8.5827,10.62109 Z" fill="#000000" id="Shape"/><path d="M30,55.875 C44.2741376,55.8062083 55.7963276,44.1910968 55.7504665,29.9168671 C55.7046053,15.6426374 44.1080185,4.1018034 29.8337335,4.12473387 C15.5594486,4.14766433 4.00000027,15.7256966 4,30 C4.05059081,44.3181773 15.6817451,55.8934126 30,55.875 Z M30,6.125 C43.1695757,6.19376862 53.796362,16.9134441 53.7505153,30.0831195 C53.7046686,43.2527949 43.0035054,53.898223 29.8337702,53.8752983 C16.6640349,53.8523737 5.99999752,43.1697552 6,30 C6.04967695,16.7860145 16.7859352,6.10567421 30,6.125 Z" fill="#000000" id="Shape"/><path d="M30,41 C36.0751322,41 41,36.0751322 41,30 C41,23.9248678 36.0751322,19 30,19 C23.9248678,19 19,23.9248678 19,30 C19.0068611,36.072288 23.927712,40.9931389 30,41 Z M30,21 C34.9705627,21 39,25.0294373 39,30 C39,34.9705627 34.9705627,39 30,39 C25.0294373,39 21,34.9705627 21,30 C21.0055991,25.0317583 25.0317583,21.0055991 30,21 Z" fill="#000000" id="Shape"/></g></g></g></svg>