<svg width="32" height="32" xmlns="http://www.w3.org/2000/svg">

 <g>
  <title>background</title>
  <rect fill="none" id="canvas_background" height="402" width="582" y="-1" x="-1"/>
 </g>
 <g>
  <title>Layer 1</title>
  <path id="svg_1" fill="#ffffff" d="m31.555,13.026c0.068,-0.546 -0.136,-1.057 -0.205,-1.296c-0.068,-0.239 -0.443,-0.512 -0.375,-0.989s0,-0.819 -0.239,-1.032c-0.239,-0.213 -0.784,0.282 -1.091,0.179c-0.307,-0.102 0,0 -1.228,-0.341c-1.228,-0.341 -0.887,-0.034 -1.398,-0.034c-0.512,0 -1.33,0.068 -2.524,-0.136c-1.194,-0.205 -2.353,0.102 -3.104,0.102c-0.267,0 -0.534,-0.017 -0.998,-0.066c-0.017,0.075 -0.034,0.153 -0.052,0.234c-0.094,0.432 -0.186,0.942 -0.257,1.492c-0.047,0.36 -0.084,0.738 -0.105,1.121c-0.011,0.203 -0.018,0.408 -0.02,0.613c-0.006,0.595 0.031,1.189 0.118,1.735c0.016,0.101 0.033,0.2 0.052,0.297c0.034,0.169 0.072,0.332 0.113,0.487c0.035,0.129 0.072,0.252 0.111,0.369c0.039,0.12 0.077,0.227 0.114,0.317c0.05,0.121 0.099,0.222 0.144,0.306c0.069,0.131 0.136,0.244 0.198,0.336c0.033,0.05 0.064,0.095 0.093,0.135c0.066,0.09 0.124,0.154 0.16,0.197c0.021,0.026 0.036,0.044 0.045,0.056c-0.012,-0.012 -0.032,-0.032 -0.061,-0.061c-0.048,-0.052 -0.122,-0.121 -0.207,-0.215c-0.17,-0.2 -0.403,-0.49 -0.628,-0.876c-0.225,-0.394 -0.441,-0.88 -0.61,-1.42c-0.08,-0.256 -0.151,-0.523 -0.211,-0.797c-0.069,-0.309 -0.125,-0.626 -0.169,-0.944c-0.085,-0.603 -0.126,-1.211 -0.137,-1.78c-0.009,-0.401 -0.004,-0.784 0.01,-1.134c0.006,-0.148 0.013,-0.29 0.022,-0.425c0.004,-0.063 0.008,-0.124 0.012,-0.184c-0.391,-0.046 -0.857,-0.101 -1.419,-0.168c-0.035,0.147 -0.073,0.314 -0.111,0.498c-0.079,0.377 -0.157,0.825 -0.217,1.308c-0.039,0.316 -0.07,0.647 -0.088,0.982c-0.009,0.178 -0.015,0.358 -0.016,0.537c-0.004,0.525 0.028,1.046 0.1,1.52c0.013,0.089 0.028,0.175 0.044,0.26c0.029,0.15 0.06,0.293 0.094,0.427c0.03,0.115 0.062,0.223 0.093,0.324c0.035,0.116 0.067,0.211 0.095,0.279c0.038,0.091 0.068,0.152 0.092,0.19c0.046,0.084 0.089,0.152 0.128,0.203c-0.002,-0.002 -0.004,-0.004 -0.006,-0.007c-0.136,-0.178 -0.319,-0.428 -0.495,-0.75c-0.179,-0.338 -0.351,-0.748 -0.485,-1.201c-0.064,-0.216 -0.121,-0.441 -0.17,-0.671c-0.055,-0.26 -0.101,-0.526 -0.137,-0.793c-0.07,-0.508 -0.104,-1.018 -0.114,-1.494c-0.008,-0.337 -0.005,-0.658 0.005,-0.951c0.004,-0.124 0.01,-0.244 0.016,-0.357c0.009,-0.158 0.019,-0.304 0.03,-0.437c-0.462,-0.054 -0.974,-0.112 -1.542,-0.177c-0.013,0.037 -0.025,0.085 -0.038,0.139c-0.04,0.159 -0.088,0.37 -0.136,0.618c-0.064,0.323 -0.128,0.708 -0.177,1.123c-0.032,0.271 -0.057,0.556 -0.07,0.843c-0.008,0.153 -0.012,0.307 -0.013,0.461c-0.003,0.455 0.025,0.903 0.083,1.305c0.011,0.076 0.023,0.151 0.036,0.223c0.024,0.13 0.049,0.253 0.076,0.367c0.024,0.101 0.051,0.194 0.076,0.279c0.01,0.035 0.019,0.068 0.027,0.097c-0.081,-0.13 -0.171,-0.283 -0.259,-0.46c-0.133,-0.282 -0.26,-0.617 -0.36,-0.981c-0.048,-0.176 -0.091,-0.358 -0.128,-0.544c-0.042,-0.211 -0.077,-0.426 -0.105,-0.642c-0.054,-0.412 -0.081,-0.824 -0.091,-1.208c-0.007,-0.273 -0.007,-0.532 0,-0.768c0.003,-0.101 0.006,-0.197 0.011,-0.289c0.011,-0.228 0.025,-0.426 0.039,-0.585c0.002,-0.026 0.004,-0.05 0.007,-0.073c-0.631,-0.035 -1.224,-0.023 -1.779,0.025c0.019,0.012 0.047,0.035 0.039,0.062c-0.002,0.007 -0.007,0.026 -0.014,0.054c-0.009,0.036 -0.021,0.084 -0.035,0.143c-0.031,0.13 -0.069,0.309 -0.108,0.522c-0.049,0.269 -0.099,0.592 -0.136,0.939c-0.024,0.227 -0.043,0.465 -0.053,0.704c-0.006,0.128 -0.009,0.257 -0.009,0.384c-0.001,0.384 0.022,0.761 0.065,1.09c0.008,0.064 0.018,0.126 0.027,0.186c0.019,0.11 0.038,0.213 0.057,0.307c0.009,0.04 0.018,0.077 0.027,0.113c-0.005,-0.008 -0.009,-0.015 -0.014,-0.023c-0.068,-0.136 -0.151,-0.302 -0.23,-0.498c-0.086,-0.227 -0.169,-0.485 -0.235,-0.761c-0.032,-0.136 -0.061,-0.276 -0.086,-0.417c-0.029,-0.162 -0.053,-0.327 -0.073,-0.491c-0.038,-0.316 -0.059,-0.63 -0.068,-0.922c-0.007,-0.208 -0.008,-0.406 -0.005,-0.585c0.001,-0.077 0.003,-0.151 0.005,-0.221c0.006,-0.175 0.014,-0.327 0.023,-0.446c0.001,-0.015 0.002,-0.028 0.003,-0.042c-0.761,0.117 -1.437,0.298 -2.021,0.502c-0.007,0.042 -0.015,0.086 -0.022,0.132c-0.057,0.355 -0.117,0.835 -0.131,1.319c-0.018,0.484 0.01,0.97 0.062,1.333c0.014,0.091 0.027,0.174 0.038,0.248c0.014,0.073 0.029,0.136 0.04,0.189c0.023,0.105 0.036,0.165 0.036,0.165s-0.023,-0.057 -0.063,-0.157c-0.02,-0.05 -0.046,-0.111 -0.072,-0.181c-0.024,-0.072 -0.051,-0.152 -0.08,-0.241c-0.114,-0.354 -0.227,-0.842 -0.293,-1.339c-0.062,-0.441 -0.087,-0.886 -0.095,-1.245c-0.688,0.287 -1.214,0.591 -1.564,0.82c-0.223,0.112 -0.475,0.284 -0.737,0.546c-0.005,0.063 -0.008,0.134 -0.01,0.214c-0.008,0.308 0.015,0.728 0.114,1.138c0.048,0.205 0.114,0.407 0.193,0.591c0.079,0.184 0.172,0.349 0.263,0.485c0.044,0.07 0.091,0.127 0.131,0.182c0.043,0.051 0.08,0.097 0.112,0.133c0.067,0.071 0.105,0.112 0.105,0.112s-0.048,-0.029 -0.133,-0.079c-0.042,-0.026 -0.091,-0.061 -0.148,-0.099c-0.054,-0.042 -0.119,-0.087 -0.183,-0.144c-0.132,-0.111 -0.277,-0.253 -0.416,-0.423c-0.139,-0.169 -0.272,-0.365 -0.388,-0.571c-0.124,-0.219 -0.227,-0.448 -0.311,-0.669c-0.371,0.606 -0.732,1.436 -1.032,2.575c-1.177,4.468 -1.279,3.922 -2.337,4.298c0,0 -1.808,0.273 -1.16,-0.478c0.648,-0.75 -0.648,-1.33 -1.194,-0.034c-0.546,1.296 1.108,1.864 2.422,1.705c0.694,-0.084 1.188,-0.269 1.68,-0.652c-0.229,0.3 -0.431,0.56 -0.521,0.754c-0.205,0.443 -0.341,0.75 -0.478,1.603c-0.136,0.853 -0.136,0.614 -0.171,0.955c-0.034,0.341 0.546,0.85 0.546,0.85s0.648,-0.031 0.853,0c0.205,0.031 0.784,0.139 0.682,-0.577c-0.102,-0.716 -0.546,-0.443 -0.546,-0.443s0.239,-0.512 0.478,-1.091c0.239,-0.58 0.716,-0.853 1.091,-1.33c0.375,-0.478 1.228,-1.16 1.569,-1.603c0.341,-0.443 1.126,-0.853 1.262,-0.75c0.136,0.102 0.068,0.205 0.273,0.75c0.205,0.546 0.273,0.819 0.228,1.467c-0.045,0.648 -0.399,0.887 0,1.398c0.399,0.512 2.159,2.221 2.159,2.221s1.364,0.303 1.637,0.235c0.273,-0.068 0.921,-0.068 0.478,-0.682c-0.443,-0.614 -0.375,-0.171 -1.023,-0.341c-0.648,-0.171 -0.648,-0.648 -0.887,-1.126c-0.239,-0.478 -0.341,-1.228 0.171,-2.183s0.784,-1.978 1.023,-2.592c0.239,-0.614 2.695,1.023 3.888,1.023c1.194,0 1.194,-0.102 2.251,-0.068c1.057,0.034 0.478,0.546 0.478,1.057c0,0.512 0.136,1.126 0.239,1.91c0.102,0.784 -0.034,1.126 0.034,1.774c0.068,0.648 0.205,1.16 0.205,1.16s2.626,0.239 2.626,0c0,-0.239 -0.341,-0.512 -0.512,-0.75c-0.171,-0.239 -0.75,-0.102 -0.75,-0.102s-0.409,-0.512 -0.102,-1.262c0.307,-0.75 0.784,-1.637 0.887,-2.115c0.102,-0.478 0.307,-0.136 0.887,0.171c0.58,0.307 0.75,0.341 1.639,1.126c0.889,0.784 0.816,0.375 1.089,0.819c0.273,0.443 0.273,0.819 0.546,1.74c0.273,0.921 0.478,0.784 0.75,0.819c0.273,0.034 0.921,0.034 1.091,-0.171s0.068,-0.58 0,-1.262c-0.068,-0.682 -0.136,-0.784 -0.512,-1.842c-0.375,-1.057 -1.296,-1.671 -1.671,-2.456c-0.375,-0.784 -0.205,-0.819 -0.171,-1.364c0.019,-0.3 0.131,-0.456 0.301,-0.7c-0.104,-0.129 -0.233,-0.3 -0.366,-0.505c-0.165,-0.252 -0.338,-0.557 -0.493,-0.897c-0.155,-0.339 -0.29,-0.714 -0.388,-1.097c-0.099,-0.382 -0.16,-0.772 -0.185,-1.138c-0.026,-0.366 -0.017,-0.707 0.009,-0.997c0.025,-0.29 0.065,-0.528 0.097,-0.694c0.032,-0.166 0.055,-0.259 0.055,-0.259s-0.013,0.095 -0.027,0.263c-0.014,0.167 -0.028,0.407 -0.021,0.693c0.006,0.286 0.034,0.619 0.097,0.968c0.063,0.349 0.161,0.714 0.294,1.064c0.132,0.351 0.296,0.687 0.474,0.986c0.178,0.299 0.368,0.562 0.543,0.775c0.091,0.11 0.176,0.207 0.254,0.29c0.056,-0.104 0.115,-0.221 0.175,-0.356c0.443,-0.989 0.398,-0.765 0.478,-0.375c0.117,0.576 0.375,0.853 0.375,0.853s0.239,-0.273 0.75,-0.648c0.512,-0.375 0.716,-0.068 0.784,0.034c0.068,0.102 0.409,0.716 0.853,0.887c0.443,0.171 0.478,0 0.614,-0.409c0.136,-0.409 0.273,0.034 0.614,-0.273c0.341,-0.307 0.75,-0.614 0.784,-0.853c0.036,-0.243 -0.51,-0.959 -0.442,-1.505z"/>
 </g>
</svg>