<svg width="40" height="40" viewBox="0 0 40 40" fill="none" xmlns="http://www.w3.org/2000/svg">
<g clip-path="url(#clip0)">
<path d="M1.59581 39.5778C1.5293 39.623 1.67063 39.7257 1.68726 39.7545C1.75377 39.6353 1.56255 39.5491 1.59581 39.5778Z" fill="#373735"/>
<path d="M2.24414 38.3864L2.2774 38.4522L2.28987 38.1934L2.24414 38.3864Z" fill="#373735"/>
<path d="M3.11273 37.5334C2.82174 37.406 2.83422 37.8784 2.60559 37.9565L2.53076 37.9318L2.63053 38.166C2.78849 37.9565 2.92151 37.6073 3.11273 37.5334Z" fill="#373735"/>
<path d="M4.02755 37.5244C3.91532 37.471 4.05665 37.356 3.89453 37.6066C3.91532 37.6066 3.92363 37.6066 3.9361 37.6066C3.95273 37.586 3.97767 37.5614 4.02755 37.5244Z" fill="#373735"/>
<path d="M3.93631 37.6074C3.84901 37.706 4.06101 37.6156 3.93631 37.6074V37.6074Z" fill="#373735"/>
<path d="M4.30989 37.1465L4.26416 37.3354C4.33898 37.3601 4.45538 37.2615 4.45122 37.3354C4.5302 37.1752 4.45953 37.1547 4.30989 37.1465Z" fill="#373735"/>
<path d="M4.26861 36.8809L4.23535 36.9712C4.26861 36.9836 4.29355 36.9753 4.26861 36.8809Z" fill="#373735"/>
<path d="M4.17281 37.1672L4.23932 36.9741C4.18944 36.9577 4.11877 36.892 4.20191 37.0563C4.14787 36.9823 4.18113 37.0686 4.17281 37.1672Z" fill="#373735"/>
<path d="M4.06502 37.2086C3.95279 37.2291 3.83639 37.2866 3.88212 37.0977C3.68259 37.3523 3.86549 37.4674 4.06502 37.2086Z" fill="#373735"/>
<path d="M2.93824 37.2734L2.78859 37.3022L2.78027 37.4501C2.78443 37.3761 3.0089 37.3351 2.93824 37.2734Z" fill="#373735"/>
<path d="M5.16618 36.5139C5.12877 36.4605 5.00822 36.4358 4.94171 36.3906L4.9043 36.5303C4.97912 36.5098 5.09136 36.4522 5.16618 36.5139Z" fill="#373735"/>
<path d="M4.94191 36.387L5.00011 36.1816C4.86709 36.2884 4.88371 36.346 4.94191 36.387Z" fill="#373735"/>
<path d="M4.05648 36.629L4.00244 37.0028L4.09805 36.5879L4.05648 36.629Z" fill="#373735"/>
<path d="M5.67822 36.0172L5.70732 36.1938L5.68654 35.9062L5.67822 36.0172Z" fill="#373735"/>
<path d="M5.99756 35.6687C6.02666 35.8084 6.21787 35.7344 6.21372 35.8453C6.28854 35.7385 6.2927 35.5906 6.29685 35.4551C6.25944 35.566 6.16799 35.6358 5.99756 35.6687Z" fill="#373735"/>
<path d="M6.31815 35.2461C6.30152 35.3036 6.30152 35.3775 6.29736 35.4597C6.31815 35.3981 6.32646 35.3324 6.31815 35.2461Z" fill="#373735"/>
<path d="M5.24561 35.9809C5.28302 35.9974 5.37447 36.0467 5.47839 36.0056L5.29965 35.9316C5.28302 35.944 5.26223 35.9604 5.24561 35.9809Z" fill="#373735"/>
<path d="M5.29102 35.9267L5.29517 35.9308C5.35337 35.8774 5.39494 35.8404 5.41572 35.8281C5.40325 35.8363 5.36584 35.8692 5.29102 35.9267Z" fill="#373735"/>
<path d="M5.22893 35.9921C5.23309 35.988 5.23725 35.9839 5.2414 35.9797C5.22893 35.9715 5.22062 35.9715 5.22893 35.9921Z" fill="#373735"/>
<path d="M4.51858 36.4C4.52689 36.2521 4.61419 36.0179 4.34814 36.0672C4.3814 36.2069 4.53105 36.1782 4.51858 36.4Z" fill="#373735"/>
<path d="M5.00832 35.9023L4.83789 36.0133C4.8753 36.042 4.94597 36.0667 4.94181 36.1365L5.00832 35.9023Z" fill="#373735"/>
<path d="M5.0374 35.791L5.0083 35.9019L5.07065 35.8608L5.0374 35.791Z" fill="#373735"/>
<path d="M5.96068 35.3647C5.969 35.2496 6.02719 35.1798 6.0937 35.0977C5.98978 35.1511 5.89002 35.2209 5.81104 35.2989C5.84013 35.3523 5.87755 35.455 5.96068 35.3647Z" fill="#373735"/>
<path d="M5.62434 35.628C5.62434 35.6197 5.6285 35.6156 5.63266 35.6074C5.61187 35.6074 5.60356 35.6074 5.62434 35.628Z" fill="#373735"/>
<path d="M6.83794 34.3658C6.82547 34.3617 6.813 34.3576 6.80469 34.3535C6.813 34.3617 6.81716 34.3699 6.82547 34.3782L6.83794 34.3658Z" fill="#373735"/>
<path d="M5.7776 35.2908C5.69446 35.3277 5.68615 35.3935 5.69031 35.4674C5.72356 35.4099 5.76097 35.3565 5.81501 35.3031C5.79839 35.2785 5.79007 35.2661 5.7776 35.2908Z" fill="#373735"/>
<path d="M6.46756 34.9824C6.40936 34.9865 6.35117 35.003 6.29297 35.0194C6.36364 35.0276 6.48834 35.0235 6.46756 34.9824Z" fill="#373735"/>
<path d="M5.68629 35.623C5.68629 35.6272 5.68629 35.6313 5.68213 35.6395C5.72785 35.6436 5.71538 35.6313 5.68629 35.623Z" fill="#373735"/>
<path d="M5.68588 35.6229C5.69835 35.5736 5.69419 35.5202 5.69003 35.4668C5.66509 35.512 5.64431 35.5613 5.63184 35.6065C5.64846 35.6106 5.66925 35.6147 5.68588 35.6229Z" fill="#373735"/>
<path d="M6.25543 33.3472C6.35935 33.4746 6.30947 33.7375 6.04758 33.7498C5.9977 33.9716 6.47159 34.2592 6.80414 34.3537C6.75841 34.3003 6.71269 34.251 6.78335 34.0456C6.67112 34.0291 6.3261 34.2058 6.33857 33.984C6.46327 33.7416 6.52978 33.8772 6.68359 33.8484C6.46327 33.7786 6.70853 33.4089 6.45496 33.2363L6.36766 33.4705C6.32194 33.4458 6.33025 33.3349 6.25543 33.3472Z" fill="#373735"/>
<path d="M6.52155 34.609L6.47998 34.6788C6.56728 34.6336 6.65873 34.6336 6.83747 34.6377C6.87489 34.4857 6.8541 34.4241 6.82085 34.3789L6.52155 34.6418V34.609Z" fill="#373735"/>
<path d="M6.22285 34.9323C6.13971 34.7638 6.22285 34.5749 6.00253 34.5215C5.84457 34.6981 5.99006 34.7433 5.94434 34.8953C6.18544 34.5954 5.93602 35.0432 6.20622 34.9199C6.17712 34.9939 6.13555 35.0473 6.09398 35.0966C6.15634 35.0637 6.22285 35.035 6.29351 35.0144C6.28936 35.0144 6.2852 35.0144 6.28104 35.0144C6.28104 35.0144 6.28104 35.0144 6.28104 35.0103C6.25195 35.0062 6.23947 35.0021 6.26442 34.998C6.26442 34.9939 6.26442 34.9898 6.26857 34.9898C6.24363 34.9733 6.23532 34.9528 6.22285 34.9323C6.32677 34.883 6.26857 34.9528 6.26026 34.9939C6.26442 35.0021 6.26857 35.0103 6.27689 35.0144C6.27689 35.0144 6.27689 35.0144 6.28104 35.0144L6.48473 34.6776C6.40575 34.7187 6.33924 34.7926 6.22285 34.9323Z" fill="#373735"/>
<path d="M4.22314 35.6553C4.24393 35.6594 4.25224 35.6676 4.26056 35.6759C4.26471 35.643 4.26056 35.6225 4.22314 35.6553Z" fill="#373735"/>
<path d="M4.40999 35.6191C4.40584 35.6561 4.44325 35.7218 4.36427 35.7752C4.26866 35.7917 4.30192 35.7136 4.26035 35.6767C4.25619 35.7465 4.21462 35.8985 4.39752 35.841V35.804C4.55133 35.7383 4.85063 35.7547 4.84647 35.7917C4.70513 35.7095 4.59706 35.6561 4.40999 35.6191Z" fill="#373735"/>
<path d="M5.2911 35.2366L5.45738 34.9531L5.23291 34.9572L5.30358 35.0147C5.14977 35.1174 5.25785 35.1708 5.2911 35.2366Z" fill="#373735"/>
<path d="M6.92529 34.4039L7.02922 34.5683L6.97102 34.252L6.92529 34.4039Z" fill="#373735"/>
<path d="M7.20361 34.0946L7.30754 34.2219L7.31585 34.0781L7.20361 34.0946Z" fill="#373735"/>
<path d="M22.3721 16.2548L22.4053 16.1562C22.3845 16.1973 22.3762 16.2261 22.3721 16.2548Z" fill="#373735"/>
<path d="M21.8813 16.7233L21.9271 16.7932C21.9188 16.7357 21.9063 16.7069 21.8813 16.7233Z" fill="#373735"/>
<path d="M14.4199 26.9385C14.6236 26.9508 14.9021 27.0083 14.7608 26.8933L14.6028 26.7988C14.5571 26.8851 14.4906 26.9221 14.4199 26.9385Z" fill="#373735"/>
<path d="M18.61 21.2953C18.5892 21.2912 18.5642 21.2871 18.5435 21.2871C18.5642 21.3528 18.5809 21.4145 18.6017 21.472C18.6017 21.4145 18.6058 21.3569 18.61 21.2953Z" fill="#373735"/>
<path d="M18.1528 20.7034L18.3648 20.6582C18.3025 20.6582 18.236 20.6705 18.1528 20.7034Z" fill="#373735"/>
<path d="M24.87 13.5179L24.8159 13.3125C24.6954 13.4316 24.8159 13.444 24.87 13.5179Z" fill="#373735"/>
<path d="M10.1712 31.0709C10.3042 31.038 10.3915 30.9929 10.458 30.9395C10.2834 30.9682 10.0922 30.9395 10.1712 31.0709Z" fill="#373735"/>
<path d="M23.5362 17.7779C23.5528 17.7163 23.5445 17.6711 23.5154 17.6465C23.4946 17.7081 23.4987 17.7533 23.5362 17.7779Z" fill="#373735"/>
<path d="M10.6996 30.7012C10.6705 30.7012 10.6497 30.7094 10.6248 30.7135C10.5832 30.7957 10.5416 30.8737 10.4585 30.9394C10.5874 30.9189 10.7038 30.8696 10.6996 30.7012Z" fill="#373735"/>
<path d="M34.5225 4.18905C34.5349 4.18905 34.5474 4.18083 34.5599 4.18083C34.5432 4.1644 34.5308 4.17262 34.5225 4.18905Z" fill="#373735"/>
<path d="M38.5883 2.71094C38.5675 2.7438 38.5259 2.78899 38.4844 2.83417C38.5135 2.82185 38.5467 2.78899 38.5883 2.71094Z" fill="#373735"/>
<path d="M8.44207 32.9824C8.38803 33.0523 8.44622 33.0071 8.44207 32.9824V32.9824Z" fill="#373735"/>
<path d="M7.63604 32.7855C7.63604 32.7567 7.62773 32.7321 7.59863 32.6992C7.62357 32.7321 7.63604 32.7608 7.63604 32.7855Z" fill="#373735"/>
<path d="M10.5249 29.3017L10.5291 29.2976C10.4875 29.2935 10.4958 29.2935 10.5249 29.3017Z" fill="#373735"/>
<path d="M8.29248 33.0176C8.32989 33.0094 8.37146 32.9971 8.40887 32.9766C8.38809 32.9766 8.35068 32.9889 8.29248 33.0176Z" fill="#373735"/>
<path d="M8.36339 33.0645C8.33429 33.0809 8.31766 33.0932 8.29688 33.1055C8.30935 33.1343 8.33013 33.1425 8.36339 33.0645Z" fill="#373735"/>
<path d="M8.52093 32.8867C8.48767 32.9237 8.4461 32.9524 8.40869 32.973C8.42948 32.9689 8.44195 32.973 8.44195 32.9771C8.45857 32.9607 8.48352 32.9319 8.52093 32.8867Z" fill="#373735"/>
<path d="M29.7461 9.57891C29.7544 9.57891 29.7627 9.5748 29.771 9.57891C29.7835 9.46389 29.7627 9.50086 29.7461 9.57891Z" fill="#373735"/>
<path d="M14.7236 24.0215C14.7236 24.0254 14.7236 24.0293 14.7236 24.0332C14.7275 24.0332 14.7313 24.0293 14.7351 24.0293L14.7236 24.0215Z" fill="#373735"/>
<path d="M14.8522 23.7109C14.9146 23.9615 14.8398 23.9985 14.7358 24.0355L15.1765 24.3271L14.8522 23.7109Z" fill="#373735"/>
<path d="M23.49 15.0756L23.2198 15.1167C23.2198 14.7428 23.4235 14.6689 23.1159 14.6566C23.4942 15.0715 22.5464 15.3015 22.9206 15.7164L22.7335 15.737C22.7667 15.7123 22.7501 15.6835 22.7834 15.6589C22.3885 15.6712 22.9206 16.0943 22.6046 16.2915C22.4841 16.349 22.3635 16.3572 22.376 16.2463L22.2721 16.5421C22.2056 16.5914 22.1515 16.5092 22.218 16.4599L21.9437 16.7968L21.9354 16.7845C21.952 16.8913 21.952 17.0843 21.9437 17.1747C21.8065 17.1952 21.9395 17.0925 21.8689 17.0638L21.794 17.3267C21.6194 17.2938 21.661 17.0556 21.794 16.9529C21.237 16.7146 21.7525 17.1911 21.1747 17.302L21.2869 17.0925C20.9585 16.9734 20.9128 17.1788 20.5885 17.2158C20.7049 17.2445 21.3077 17.2076 21.2245 17.4869C21.1414 17.5074 21.0583 17.5608 21.0375 17.7416C20.8961 17.6019 20.8338 17.7334 20.7174 17.8607L20.5387 17.6676C20.4597 17.8525 20.5677 17.9347 20.5761 18.0949C20.4098 18.2222 20.2352 18.1072 20.0772 18.0209C19.8112 18.2222 20.4721 18.0908 20.231 18.403C19.965 18.5262 19.9026 18.7357 19.7821 19.0807C19.5784 19.1506 19.6906 18.9452 19.5867 18.937L19.6158 19.204C19.5826 19.2286 19.5452 19.1752 19.5285 19.1465C19.4828 19.3067 19.7073 19.3395 19.5992 19.549C19.7613 19.7955 18.9673 19.5778 19.0006 20.005C18.8967 20.0009 18.9091 19.8695 18.8219 19.8119C18.7013 20.2351 18.7013 20.1529 18.6847 20.5801L18.3687 20.6458C18.6514 20.6458 18.6389 20.9909 18.6182 21.2785C18.7346 21.2949 18.8385 21.3154 18.8967 21.3113L18.747 21.6605C18.6847 21.6605 18.6473 21.5701 18.6099 21.451C18.6099 21.4838 18.6057 21.5126 18.6099 21.5414C18.4519 21.5619 18.3895 21.4099 18.348 21.2415C18.4145 21.2497 18.4851 21.2579 18.5558 21.2661C18.5018 21.0936 18.4353 20.9087 18.3106 20.8143C18.3147 20.8512 18.3022 20.9005 18.2773 20.9457C18.2607 20.9005 18.244 20.8594 18.2191 20.8512C18.19 20.8389 18.2066 20.9087 18.2149 20.995L17.9489 20.843L18.0196 20.9375L17.5582 21.1306C17.5332 21.5701 17.6413 22.0795 17.3545 22.5355C17.2921 22.2931 17.1217 22.2684 16.9471 22.0836C17.2422 22.174 17.1549 21.718 17.3877 21.566C17.2672 21.6441 17.2007 21.5372 17.1965 21.4838L17.0261 21.9973C16.8847 21.8412 16.8432 21.9604 16.6894 21.9891C17.051 22.2109 16.627 22.4369 16.5771 22.6628C16.469 22.5724 16.4025 22.441 16.5979 22.2972C16.1864 22.2643 16.7018 22.8805 16.3277 22.8764C16.3651 22.8312 16.4067 22.8271 16.3693 22.7614C16.361 22.9462 16.0534 23.1106 16.0201 22.9709L16.0617 22.9257C15.7499 23.164 15.2137 23.7596 15.4257 24.0471C15.3924 24.0184 15.1596 23.7144 15.1264 23.6487L15.4714 24.9673C15.301 24.7126 14.6234 24.3717 14.7315 24.0266C14.6359 24.0636 14.5195 24.1088 14.453 24.3183C14.5278 24.3059 14.877 24.5154 14.8354 24.5935C14.428 24.5237 14.5901 24.5812 14.1786 24.5894C14.2908 24.5688 14.5527 24.9755 14.4363 25.07C14.4031 25.0043 14.0955 24.7496 14.0996 24.6756L14.1661 25.2631C14.1744 25.1398 13.8959 24.9755 13.7463 24.9427C13.8377 24.9796 13.5093 25.1645 13.4719 25.2672L13.6631 25.2302C13.314 25.4767 13.8336 25.9819 13.5177 26.2572C13.4844 26.1545 13.1851 25.756 12.9939 25.8628C13.0936 26.097 13.501 26.9719 13.368 27.3581L13.2225 27.3129L13.1311 27.621C13.0022 27.2431 12.8193 26.3681 12.8027 25.9696C12.6156 26.0066 12.6572 25.8875 12.4992 26.0641C12.3496 26.0312 12.4535 25.8382 12.4992 25.7848L12.0503 26.1134C12.2664 26.29 11.9505 26.6063 12.1293 26.7542L12.3496 26.1339C12.5657 26.3106 12.6655 26.9309 12.3537 27.1691C12.2041 27.1609 12.0544 26.7707 11.9838 26.709C12.017 26.8117 11.8507 27.0993 11.7759 27.0746L11.7884 26.8528C11.5598 26.9309 11.7967 27.3622 11.4226 27.3581C11.3478 27.4074 10.9778 27.2965 11.0817 27.4238C11.4101 27.5429 12.1292 28.2125 12.229 28.4508C12.1916 28.459 11.6761 28.5699 11.4932 28.5329C11.2106 28.4631 11.2314 27.9619 10.9903 27.9003C11.0401 27.9578 11.0485 28.0811 11.0443 28.1262C10.9321 28.1468 10.903 27.9332 10.7824 28.1016C10.957 28.3234 10.4665 28.3768 10.8822 28.3357C10.7949 28.5329 10.691 28.4467 10.5288 28.6192C10.7117 28.6931 10.8198 29.2025 10.7325 29.3997C10.691 29.3422 10.5912 29.3052 10.5455 29.2929C10.2337 29.564 9.98845 29.6297 9.70994 29.8967C9.63511 29.8721 9.44389 29.946 9.4148 29.8064C9.41064 29.8803 9.44389 29.983 9.36491 30.0693C9.02821 30.061 9.52703 29.8557 9.19448 29.7735C9.2984 29.9008 9.13628 30.1473 9.09056 30.3363C9.30672 30.4759 9.40233 30.098 9.44805 29.9049C9.69747 30.1514 9.74735 30.6115 9.57691 31.01C9.41064 31.2934 9.31919 30.9483 9.31503 31.0223C8.8453 31.4002 9.3857 31.811 8.85362 31.9835C8.55432 31.9671 8.53353 31.6795 8.38804 31.5974C8.51275 31.355 8.77048 31.4166 8.89103 31.2852L8.6624 31.3632C8.67071 31.2523 8.75385 31.0921 8.86609 31.0716C8.60836 31.0469 8.11784 31.7576 7.66059 31.9507C7.65643 32.0616 7.6107 32.2136 7.71878 32.23L7.80192 32.1068C8.02639 32.1396 7.78114 32.4724 7.97235 32.4025C7.92247 32.6285 7.90584 32.9242 7.6398 33.0475L7.42364 32.9078C7.48184 32.9571 7.66059 32.8873 7.66059 32.7763C7.66059 32.9365 7.11603 32.8339 7.26152 33.1543L7.52341 33.1419C7.47353 33.3679 7.49015 33.7294 7.26152 33.8444C7.51925 33.943 7.28231 33.7828 7.61486 33.869C7.24905 33.717 8.07212 33.4377 7.62733 33.3391C7.99729 33.4541 7.94741 33.2241 8.32153 33.2611C8.25502 33.2077 8.1511 33.2077 8.32569 33.0926C8.31322 33.068 8.30906 33.031 8.30491 33.0105C8.30906 33.0064 8.31322 33.0064 8.31738 33.0064C8.31322 33.0064 8.30906 33.0064 8.30075 33.0064C8.29659 32.99 8.29659 32.99 8.29659 33.0064C8.23424 33.0146 8.17604 33.0105 8.13032 32.99C8.06796 32.7846 8.30491 32.5586 8.30906 32.4107C8.42546 32.3532 8.34232 32.5134 8.4504 32.5299L8.46287 32.308C8.60836 32.4272 8.91181 32.2957 8.7871 32.5751L8.97832 32.3984C9.16123 32.3656 9.33997 32.2464 9.37323 32.1027C9.48962 32.0451 9.44805 31.7412 9.47299 31.9178L9.68084 31.5522L9.71825 31.581C10.0175 31.3181 10.0841 30.7881 10.6494 30.7019C10.7117 30.5745 10.7699 30.4349 10.9695 30.3157L11.115 30.3979C11.1981 30.2377 11.5972 30.1473 11.5307 29.9748C11.9713 30.1473 12.1958 29.4531 12.466 29.2929L12.3246 29.1368C12.4826 28.9971 12.5824 28.8164 12.7071 28.574L12.5657 28.4549C12.6156 28.192 13.0687 28.1427 13.3057 27.8798C13.3389 27.9455 13.2599 27.9948 13.1851 28.0112C13.7837 28.0071 13.6049 27.1691 14.0955 27.1157C14.1162 27.0007 14.1828 26.9678 14.2617 26.9555C14.2576 26.9637 14.2534 26.9719 14.2534 26.9802C14.2617 26.976 14.2742 26.9637 14.2825 26.9555C14.3366 26.9473 14.3906 26.9432 14.4488 26.9309C14.3864 26.9268 14.3366 26.9268 14.2991 26.9391C14.349 26.8857 14.4114 26.7912 14.4571 26.6803L14.6317 26.7871C14.6359 26.7789 14.64 26.7748 14.6442 26.7665C14.773 26.7419 14.64 26.6392 14.4904 26.5735C14.507 26.5119 14.5153 26.4502 14.507 26.3886C14.798 26.5529 14.6359 26.1093 14.9643 26.2654C14.8977 26.097 15.2677 25.7889 15.0599 25.5013C15.0931 25.5301 15.1347 25.5219 15.0931 25.5671C15.2095 25.5095 15.3259 25.452 15.3301 25.3041L15.5462 25.4438L15.4922 25.0166C15.7167 25.0125 15.8289 25.0248 15.8538 25.2754C15.9162 24.7907 15.9993 24.9755 16.0201 24.5319L16.124 24.6592C16.203 24.573 16.1822 24.2854 16.3277 24.3306C16.7351 24.3635 17.288 23.4392 17.978 23.1681C17.5415 22.9216 18.3563 23.0982 18.111 22.8148C18.2191 22.8682 18.3313 22.8477 18.3272 22.9914C18.4935 22.671 18.826 22.7532 18.772 22.3629C18.88 22.4163 18.8385 22.5313 18.9091 22.556C18.9133 22.519 18.9175 22.4081 18.9923 22.4328C19.0671 22.4574 19.0255 22.5355 19.0214 22.6094C19.2583 22.3465 19.0339 22.0754 18.8177 21.8248C19.0546 21.8084 19.1045 21.7303 19.0422 21.488C19.1627 21.5208 19.3165 21.5249 19.1877 21.7057C19.2874 21.6317 19.8361 21.2867 19.6574 21.0895C19.7322 21.11 19.7946 20.9827 19.7946 20.9375C20.0024 20.7526 20.0357 20.7526 20.2144 20.5431L20.1313 20.5678C19.9816 20.2679 20.2435 20.3583 20.3724 20.1775L20.3932 20.2063C20.9169 20.0132 20.468 19.9763 21.0084 19.8119L20.8463 19.6928C20.5761 19.3601 21.3368 19.5614 21.4282 19.241L21.2744 19.2327C21.2827 19.0191 22.0019 19.3313 22.1515 19.2574C22.2014 19.2574 22.1557 19.3395 22.1391 19.3888C22.6129 19.2738 21.9936 19.167 22.1682 18.9082C22.3095 18.9657 22.3677 19.2081 22.534 19.0807C22.6878 19.089 22.6379 18.3372 23.0328 18.329C22.9122 18.2961 22.7917 18.2633 22.8333 18.1072C22.9621 17.9264 23.5441 17.9757 23.4443 17.5978C23.4859 17.5978 23.5108 17.6101 23.5316 17.6307C23.5898 17.4499 23.8143 17.1459 23.7561 16.9447C24.3547 17.3185 24.2632 15.9752 24.708 16.423L25.053 16.0368L25.0905 16.0902C25.3565 15.8889 25.3316 15.7 25.3066 15.511C25.3897 15.4864 25.3939 15.5685 25.4147 15.5973C25.847 15.3467 25.8636 15.2933 25.926 14.788L26.1006 14.9031C26.0923 14.7428 26.8239 14.6402 26.9902 14.139C27.0026 14.1595 27.0234 14.1924 27.0193 14.2417C27.2271 13.6995 28.3287 13.7446 27.9379 13.0833L28.0585 12.7054C27.6927 12.9847 27.8756 12.4301 27.6553 12.4753C27.7509 12.3192 28.1458 12.3069 28.0169 12.4917L27.967 12.4876C28.1873 12.8163 28.4659 12.1878 28.6446 12.3808C29.2681 11.74 30.0413 11.2758 30.6482 10.7007L30.3656 10.5569L30.5859 10.3639C30.6898 10.3598 30.827 10.4584 30.669 10.5939C30.8685 10.6391 30.8145 10.2489 30.7729 10.1955C31.1512 9.99417 30.9101 10.5569 31.0057 10.4707L31.1096 10.3351L31.0556 10.3392C31.0639 10.1544 30.9808 10.0558 31.172 9.88736C31.3258 9.81753 31.3632 9.9613 31.4131 9.92433C31.4297 9.94076 31.4505 9.93255 31.4879 9.86272L31.7664 9.62035L31.4921 9.55463C31.5253 9.35745 31.7456 9.32048 31.4339 9.25064C31.9078 9.36977 32.5188 8.3921 32.7184 8.37156C32.7558 8.08812 32.922 7.93202 33.134 7.75128C33.0509 7.7636 32.8306 7.6075 33.0218 7.45962C33.3544 7.91148 33.5082 7.31995 33.928 7.45962C33.6162 7.398 34.3686 6.93381 33.9072 6.85987C34.0818 6.74896 34.0652 6.99543 34.2647 6.98311C34.4518 6.49427 35.1127 6.33817 35.4827 5.87399C35.437 5.81648 35.2873 5.80826 35.2998 5.64395L35.782 5.68092C35.8402 5.57411 35.5617 5.31121 35.8901 5.33586C35.8236 5.31532 35.7279 5.28245 35.7654 5.20851C36.842 4.64163 37.2452 3.33944 38.5546 2.97795C38.3426 2.99027 38.405 2.90811 38.4881 2.81774C38.4091 2.8506 38.3634 2.6904 38.2803 2.63289L38.8248 2.47679C38.696 2.2221 39.1865 2.09065 39.0368 1.87293L38.9579 2.01671C38.8872 1.65522 38.2637 1.73737 38.0018 1.4375C38.0849 1.84829 37.1953 1.50323 37.2826 2.12351C37.1662 2.12762 37.2411 1.98385 37.1454 1.95098C37.1953 2.13994 37.1413 2.24675 36.9293 2.34534L36.921 2.31658C36.5178 2.77255 36.2143 2.83828 35.649 3.24085L35.8236 3.34355C35.6988 3.42981 35.6365 3.40516 35.5492 3.4216C35.6407 3.75022 35.8527 3.14226 35.9774 3.48321C35.5575 3.33944 35.2374 4.2062 34.8217 3.98026C34.6596 4.13636 35.0296 4.09118 34.8675 4.25138L34.7386 4.2062L34.8093 4.35819C34.6846 4.44445 34.5224 4.38694 34.4476 4.32122C34.4809 4.30478 34.5017 4.23084 34.5224 4.19387C34.2813 4.22674 34.1733 4.60877 34.0943 4.62109L34.3021 4.5225C33.9446 5.03598 33.2962 5.45088 33.0509 6.04652L33.1507 6.07938C32.947 6.51892 32.8181 6.26423 32.5188 6.67091L32.5147 6.64216C32.5105 6.77771 32.4482 6.90506 32.3442 6.99132C32.3567 6.82701 32.0242 7.01186 32.0574 6.81058C31.8371 7.28709 31.9867 7.0817 31.9992 7.5541L31.8371 7.5007C31.8579 7.67734 31.9036 7.73485 31.754 7.93613C31.8038 7.70198 31.4754 7.88273 31.5129 7.59929C30.9018 7.73074 31.2011 8.38389 30.6815 8.20725C30.8103 8.67554 31.172 8.05526 31.1387 8.21136C31.3175 8.22779 31.2219 8.57285 31.0764 8.65911C30.9517 8.77003 30.4903 8.47837 30.1951 8.77824C30.2242 8.74949 30.2034 8.72484 30.2367 8.69608C30.0496 8.72895 30.1203 9.0165 29.8584 9.02882C29.9623 9.28351 29.6714 9.19313 29.8792 9.44782L30.0995 9.1233C30.0039 9.33691 30.1328 9.7518 29.742 9.87093C29.7171 9.80521 29.7295 9.66965 29.7462 9.58338C29.6007 9.5916 29.6464 9.77234 29.5009 9.77645C29.2889 9.52587 29.7836 9.39853 29.7711 9.05758C29.5924 9.04114 29.6256 9.53409 29.4552 9.20546C29.6547 9.64089 29.1185 9.45604 29.1642 9.89969L29.0395 9.74769C29.0312 9.8011 29.027 9.93255 28.9647 9.98595L28.8899 9.70251C28.8815 10.0188 28.4409 9.88325 28.3661 10.1215C28.6903 9.79288 28.6072 10.216 28.8483 10.179C28.628 10.7664 28.2497 10.0476 27.8631 10.5652C27.9047 10.483 28.179 10.4214 28.1458 10.5775C28.0294 10.635 27.8631 10.6966 27.7384 10.6761C27.464 11.0006 27.9296 10.7706 27.8839 10.9842C27.6095 10.9184 27.8049 11.1978 27.7259 11.3826L27.5846 11.243C27.1523 11.4935 27.7883 11.625 27.3684 11.8222L27.3019 11.4976L27.1897 11.7071L27.0608 11.5141C27.0068 11.8057 26.9195 11.8304 26.7033 11.9536C26.8447 12.0111 26.9403 12.2288 26.7906 12.3849C26.6036 12.4055 26.7158 12.196 26.5204 12.426C26.4789 12.2905 26.4207 12.1261 26.6451 12.1631C26.6077 12.1097 26.6036 12.0276 26.5703 11.9742C26.3625 11.9906 26.2669 12.2288 26.192 12.3069C26.2294 12.2822 26.271 12.2535 26.3084 12.2576L26.192 12.7588C26.0881 12.7546 26.084 12.6725 26.084 12.5944C26.0341 12.6725 26.059 12.7793 25.9759 12.882C25.8844 12.7423 25.7597 12.6314 25.8387 12.4507L25.6683 12.8697C25.5976 12.8409 25.3773 12.8861 25.3731 12.8039C25.1403 12.8984 25.1902 13.4242 24.8826 13.5516C24.8951 13.5844 24.8909 13.6296 24.8618 13.6912C24.629 13.8679 24.3048 13.909 24.2217 14.3074L23.8766 14.2417C23.7311 14.4758 24.3256 14.3156 24.0845 14.7059C23.9265 14.9934 23.8226 14.6155 23.6896 14.636C23.6813 14.8497 23.6979 15.2522 23.3238 15.2892C23.357 15.1783 23.4402 15.1536 23.49 15.0756ZM21.2287 17.491C21.2453 17.4171 21.2453 17.2363 21.3617 17.2856C21.4698 17.4992 21.3534 17.4623 21.2287 17.491ZM17.9905 21.3647C17.978 21.2867 18.0528 21.2579 18.1651 21.2497C18.136 21.3072 18.0819 21.3483 17.9905 21.3647ZM9.01158 32.193C9.01158 32.1889 9.01158 32.1848 9.01158 32.1807C9.16538 32.1355 9.10719 32.1478 9.01158 32.193ZM8.73722 32.3409C8.73722 32.382 8.75801 32.3984 8.7871 32.4107C8.76632 32.3614 8.81205 32.3122 8.8744 32.267C8.82452 32.2423 8.77048 32.2464 8.73722 32.3409ZM31.3674 9.86682L31.2884 9.87093C31.3424 9.73537 31.3549 9.8011 31.3674 9.86682Z" fill="#373735"/>
<path d="M18.2026 20.7724C18.24 20.7847 18.2691 20.8053 18.2982 20.8299C18.2941 20.7888 18.265 20.7601 18.2026 20.7724Z" fill="#373735"/>
<path d="M24.8789 13.5565C24.8831 13.5565 24.8831 13.5524 24.8872 13.5524C24.8831 13.5401 24.8748 13.5277 24.8706 13.5195L24.8789 13.5565Z" fill="#373735"/>
<path d="M10.8076 27.917C10.87 27.8924 10.9199 27.8965 10.9656 27.9047C10.9323 27.8718 10.8866 27.8595 10.8076 27.917Z" fill="#373735"/>
<path d="M7.86022 33.684L7.95998 33.5156C7.90179 33.5855 7.84775 33.5814 7.78955 33.5896C7.82696 33.6183 7.90179 33.6389 7.86022 33.684Z" fill="#373735"/>
<path d="M5.81061 33.9768C5.80645 34.0138 5.76904 34.022 5.76904 34.0548L5.83971 34.1165C5.91869 34.0302 5.92285 33.9193 5.81061 33.9768Z" fill="#373735"/>
<path d="M7.26576 33.3436C7.1369 33.2368 7.09118 33.3601 7.02051 33.4751C7.02466 33.471 7.02882 33.4628 7.03714 33.4586C7.17431 33.6517 7.22004 33.4956 7.26576 33.3436Z" fill="#373735"/>
<path d="M6.99964 33.5C6.9747 33.5329 6.94976 33.5657 6.9165 33.5904C6.97054 33.6684 6.96223 33.5698 6.99964 33.5Z" fill="#373735"/>
<path d="M8.5503 32.6816C8.47548 32.694 8.67501 32.8583 8.60018 32.8377C8.70411 33.0349 8.71658 32.3612 8.5503 32.6816Z" fill="#373735"/>
<path d="M6.7959 33.0263L6.97465 33.1413L6.90814 32.9688L6.7959 33.0263Z" fill="#373735"/>
<path d="M7.65264 32.3945L7.46143 32.5054C7.48637 32.526 7.48221 32.563 7.46974 32.5958C7.56535 32.5096 7.69837 32.4356 7.65264 32.3945Z" fill="#373735"/>
<path d="M7.46963 32.5957C7.41975 32.6409 7.37402 32.6902 7.37402 32.7395C7.39481 32.7107 7.44885 32.6532 7.46963 32.5957Z" fill="#373735"/>
<path d="M6.9585 32.7806L7.03332 32.7683L7.14971 32.6738L6.9585 32.7806Z" fill="#373735"/>
<path d="M9.30664 30.8179L9.43135 30.6125C9.39809 30.5467 9.32327 30.5591 9.2817 30.6412C9.27338 30.7152 9.23181 30.7932 9.30664 30.8179Z" fill="#373735"/>
<path d="M8.40479 30.9116C8.47961 30.8992 8.51702 30.928 8.58769 30.9485L8.40894 30.7637L8.40479 30.9116Z" fill="#373735"/>
<path d="M8.84541 30.394C8.81216 30.3283 8.94102 30.012 8.74149 30.2297C8.77475 30.2954 8.65004 30.5008 8.84541 30.394Z" fill="#373735"/>
<path d="M11.5638 28.1602L11.5264 28.2053L11.8298 28.4929L11.5638 28.1602Z" fill="#373735"/>
<path d="M13.0439 25.2832C12.7779 25.4064 13.1811 25.5132 12.915 25.5995C12.94 25.7145 13.1312 25.5297 13.1478 25.6365C13.1936 25.4434 13.2975 25.4229 13.0439 25.2832Z" fill="#373735"/>
<path d="M13.1475 25.6328C13.1392 25.6616 13.135 25.6985 13.1309 25.7355C13.1475 25.6862 13.1516 25.6575 13.1475 25.6328Z" fill="#373735"/>
<path d="M39.2119 2.41614L39.399 2.35452L39.2202 2.33398L39.2119 2.41614Z" fill="#373735"/>
<path d="M39.2319 1.95931L39.4522 2.11952L39.3566 1.87305C39.3359 1.90591 39.2943 1.97985 39.2319 1.95931Z" fill="#373735"/>
<path d="M20.4927 17.459L20.5301 17.5124C20.6008 17.5411 20.634 17.5165 20.7005 17.4672L20.4927 17.459Z" fill="#373735"/>
<path d="M22.3467 15.9141L22.3135 15.9387L22.538 16.0537L22.3467 15.9141Z" fill="#373735"/>
<path d="M23.561 14.2793C23.4945 14.3286 23.4654 14.4354 23.3989 14.4888C23.4945 14.3286 23.7897 14.4765 23.561 14.2793Z" fill="#373735"/>
<path d="M39.5105 38.3895C39.5562 38.4552 39.6602 38.3156 39.6893 38.2991C39.5687 38.2334 39.4814 38.4224 39.5105 38.3895Z" fill="#373735"/>
<path d="M38.3052 37.7503L38.3717 37.7174L38.1099 37.7051L38.3052 37.7503Z" fill="#373735"/>
<path d="M37.4409 36.8906C37.312 37.1782 37.79 37.1659 37.869 37.3918L37.8482 37.4657L38.0852 37.3671C37.869 37.211 37.5157 37.0796 37.4409 36.8906Z" fill="#373735"/>
<path d="M37.4325 35.9883C37.3785 36.0992 37.2621 35.9595 37.5156 36.1197C37.5156 36.0992 37.5156 36.091 37.5156 36.0787C37.4949 36.0622 37.4699 36.0376 37.4325 35.9883Z" fill="#373735"/>
<path d="M37.5156 36.0787C37.6112 36.165 37.5239 35.9514 37.5156 36.0787V36.0787Z" fill="#373735"/>
<path d="M37.0459 35.7091L37.2371 35.7543C37.2621 35.6803 37.1623 35.5653 37.2371 35.5694C37.0792 35.4914 37.0584 35.5612 37.0459 35.7091Z" fill="#373735"/>
<path d="M36.7798 35.7502L36.8712 35.7831C36.8837 35.7502 36.8754 35.7256 36.7798 35.7502Z" fill="#373735"/>
<path d="M37.0707 35.8431L36.8753 35.7773C36.8587 35.8266 36.7922 35.8965 36.9584 35.8143C36.8836 35.8636 36.9709 35.8307 37.0707 35.8431Z" fill="#373735"/>
<path d="M37.1127 35.9512C37.1335 36.0621 37.1917 36.1771 37.0005 36.1319C37.2582 36.3291 37.3746 36.1484 37.1127 35.9512Z" fill="#373735"/>
<path d="M37.1787 37.0644L37.2078 37.2123L37.3575 37.2205C37.2826 37.2164 37.2411 36.9945 37.1787 37.0644Z" fill="#373735"/>
<path d="M36.4099 34.8613C36.3558 34.8983 36.3309 35.0174 36.2852 35.0831L36.4265 35.1201C36.4057 35.0462 36.3475 34.9312 36.4099 34.8613Z" fill="#373735"/>
<path d="M36.2811 35.0847L36.0732 35.0312C36.1813 35.1545 36.2395 35.1422 36.2811 35.0847Z" fill="#373735"/>
<path d="M36.5262 35.959L36.9045 36.0124L36.4805 35.918L36.5262 35.959Z" fill="#373735"/>
<path d="M35.9067 34.3569L36.0854 34.3281L35.7944 34.3487L35.9067 34.3569Z" fill="#373735"/>
<path d="M35.5536 34.0399C35.6949 34.0112 35.6201 33.8222 35.7323 33.8263C35.6242 33.7524 35.4746 33.7482 35.3374 33.7441C35.4496 33.7811 35.5203 33.8715 35.5536 34.0399Z" fill="#373735"/>
<path d="M35.1255 33.7239C35.1837 33.7403 35.2585 33.7403 35.3416 33.7444C35.2793 33.7239 35.2128 33.7156 35.1255 33.7239Z" fill="#373735"/>
<path d="M35.8697 34.7847C35.8863 34.7478 35.9362 34.6574 35.8946 34.5547L35.8198 34.7313C35.8323 34.7478 35.8489 34.7683 35.8697 34.7847Z" fill="#373735"/>
<path d="M35.8156 34.7346L35.8197 34.7305C35.7657 34.6729 35.7283 34.6319 35.7158 34.6113C35.7241 34.6278 35.7574 34.6647 35.8156 34.7346Z" fill="#373735"/>
<path d="M35.8819 34.7955C35.8778 34.7914 35.8736 34.7873 35.8695 34.7832C35.8611 34.7996 35.8611 34.8079 35.8819 34.7955Z" fill="#373735"/>
<path d="M36.2932 35.4985C36.1435 35.4903 35.9066 35.4041 35.9565 35.667C36.0978 35.6382 36.0687 35.4903 36.2932 35.4985Z" fill="#373735"/>
<path d="M35.7866 35.0176L35.8989 35.186C35.928 35.149 35.9529 35.0792 36.0277 35.0833L35.7866 35.0176Z" fill="#373735"/>
<path d="M35.6782 34.9899L35.7863 35.0186L35.7447 34.957L35.6782 34.9899Z" fill="#373735"/>
<path d="M35.2458 34.0768C35.1294 34.0685 35.0587 34.011 34.9756 33.9453C35.0296 34.048 35.1003 34.1466 35.1793 34.2246C35.2333 34.1959 35.3372 34.1589 35.2458 34.0768Z" fill="#373735"/>
<path d="M35.512 34.4106C35.5037 34.4106 35.4995 34.4065 35.4912 34.4023C35.4912 34.4229 35.4912 34.4311 35.512 34.4106Z" fill="#373735"/>
<path d="M34.2356 33.2109C34.2315 33.2233 34.2273 33.2356 34.2231 33.2438C34.2315 33.2356 34.2398 33.2315 34.2481 33.2233L34.2356 33.2109Z" fill="#373735"/>
<path d="M35.1713 34.2577C35.2087 34.3398 35.2752 34.348 35.35 34.3439C35.2919 34.3111 35.2378 34.2741 35.1838 34.2207C35.1588 34.233 35.1464 34.2454 35.1713 34.2577Z" fill="#373735"/>
<path d="M34.8594 33.5765C34.8635 33.634 34.8802 33.6915 34.8968 33.749C34.9009 33.6792 34.9009 33.556 34.8594 33.5765Z" fill="#373735"/>
<path d="M35.5078 34.348C35.512 34.348 35.5161 34.348 35.5244 34.3521C35.5286 34.3069 35.5161 34.3193 35.5078 34.348Z" fill="#373735"/>
<path d="M35.5081 34.3481C35.4582 34.3357 35.4041 34.3398 35.3501 34.344C35.3958 34.3686 35.4457 34.3891 35.4914 34.4015C35.4914 34.385 35.4997 34.3645 35.5081 34.3481Z" fill="#373735"/>
<path d="M33.2045 33.7864C33.3334 33.6837 33.5994 33.733 33.6119 33.9918C33.8364 34.0411 34.1274 33.5728 34.223 33.2441C34.1689 33.2893 34.119 33.3345 33.9112 33.2647C33.8946 33.3756 34.0733 33.7165 33.8488 33.7042C33.6036 33.581 33.7408 33.5153 33.7117 33.3633C33.641 33.581 33.2669 33.3386 33.0923 33.5892L33.3292 33.6755C33.3001 33.7206 33.1921 33.7124 33.2045 33.7864Z" fill="#373735"/>
<path d="M34.4808 33.5194L34.5515 33.5605C34.5058 33.4742 34.5058 33.3839 34.5099 33.2072C34.3561 33.1702 34.2938 33.1908 34.248 33.2236L34.5141 33.5194H34.4808Z" fill="#373735"/>
<path d="M34.8092 33.8193C34.6388 33.9015 34.4476 33.8193 34.3936 34.0371C34.5723 34.1932 34.618 34.0494 34.7718 34.0946C34.4684 33.8563 34.9215 34.1028 34.7968 33.8358C34.8716 33.8686 34.9256 33.9097 34.9755 33.9467C34.9423 33.8851 34.9132 33.8193 34.8924 33.7495C34.8924 33.7536 34.8924 33.7577 34.8924 33.7618C34.8924 33.7618 34.8924 33.7618 34.8882 33.7618C34.8841 33.7906 34.8799 33.8029 34.8758 33.7783C34.8716 33.7783 34.8674 33.7783 34.8674 33.7742C34.8508 33.7988 34.83 33.807 34.8092 33.8193C34.7594 33.7166 34.83 33.7742 34.8716 33.7824C34.8799 33.7783 34.8882 33.7742 34.8924 33.7659C34.8924 33.7659 34.8924 33.7659 34.8924 33.7618L34.5515 33.5605C34.5889 33.6386 34.6679 33.7043 34.8092 33.8193Z" fill="#373735"/>
<path d="M35.537 35.7941C35.5411 35.7736 35.5494 35.7654 35.5578 35.7571C35.5245 35.753 35.5079 35.7571 35.537 35.7941Z" fill="#373735"/>
<path d="M35.5034 35.6052C35.5408 35.6093 35.6073 35.5723 35.6572 35.6504C35.6739 35.7449 35.5949 35.712 35.5575 35.7531C35.6281 35.7572 35.7819 35.7983 35.7237 35.6175H35.6863C35.6198 35.4655 35.6364 35.1698 35.6739 35.1739C35.5949 35.3176 35.5408 35.4245 35.5034 35.6052Z" fill="#373735"/>
<path d="M35.1169 34.7346L34.8301 34.5703L34.8342 34.7921L34.8924 34.7223C34.9964 34.8784 35.0504 34.7716 35.1169 34.7346Z" fill="#373735"/>
<path d="M34.2734 33.1242L34.4356 33.0215L34.1196 33.079L34.2734 33.1242Z" fill="#373735"/>
<path d="M33.9612 32.8492L34.0901 32.7465L33.9404 32.7383L33.9612 32.8492Z" fill="#373735"/>
<path d="M15.9079 17.8592L15.8081 17.8223C15.8497 17.8469 15.8788 17.8551 15.9079 17.8592Z" fill="#373735"/>
<path d="M16.3817 18.3401L16.4524 18.2949C16.3942 18.3072 16.3609 18.3196 16.3817 18.3401Z" fill="#373735"/>
<path d="M26.7199 25.7186C26.7324 25.5173 26.7906 25.2421 26.6742 25.3818L26.5786 25.5379C26.6659 25.5831 26.7033 25.6447 26.7199 25.7186Z" fill="#373735"/>
<path d="M21.0047 21.5781C21.0005 21.5987 20.9963 21.6233 20.9922 21.6439C21.0587 21.6233 21.121 21.6069 21.1792 21.5863C21.1294 21.5863 21.0712 21.5822 21.0047 21.5781Z" fill="#373735"/>
<path d="M20.41 22.0298L20.3643 21.8203C20.3643 21.8778 20.3767 21.9477 20.41 22.0298Z" fill="#373735"/>
<path d="M13.1395 15.3906L12.9316 15.444C13.0522 15.559 13.0647 15.444 13.1395 15.3906Z" fill="#373735"/>
<path d="M30.9016 29.9163C30.8683 29.7848 30.8226 29.6985 30.7686 29.6328C30.7977 29.8053 30.7686 29.9943 30.9016 29.9163Z" fill="#373735"/>
<path d="M17.4504 16.7095C17.388 16.6931 17.3423 16.7013 17.3174 16.7301C17.3797 16.7465 17.4255 16.7465 17.4504 16.7095Z" fill="#373735"/>
<path d="M30.5278 29.3946C30.5278 29.4234 30.5361 29.4439 30.5403 29.4686C30.6234 29.5097 30.7024 29.5507 30.7689 29.6329C30.7481 29.5056 30.6983 29.3905 30.5278 29.3946Z" fill="#373735"/>
<path d="M3.69902 5.85338C3.69902 5.84105 3.6907 5.82873 3.6907 5.81641C3.67408 5.83284 3.68239 5.84105 3.69902 5.85338Z" fill="#373735"/>
<path d="M2.20312 1.83008C2.23638 1.85062 2.28211 1.8917 2.32783 1.93277C2.31536 1.90813 2.28211 1.87116 2.20312 1.83008Z" fill="#373735"/>
<path d="M32.835 31.6252C32.9056 31.6786 32.8599 31.6211 32.835 31.6252V31.6252Z" fill="#373735"/>
<path d="M32.6356 32.4219C32.6065 32.4219 32.5816 32.4301 32.5483 32.4588C32.5816 32.4342 32.6107 32.4219 32.6356 32.4219Z" fill="#373735"/>
<path d="M29.1102 29.5627L29.1061 29.5586C29.0978 29.6038 29.1019 29.5956 29.1102 29.5627Z" fill="#373735"/>
<path d="M32.8677 31.7732C32.8594 31.7363 32.847 31.6952 32.8262 31.6582C32.8303 31.6787 32.8428 31.7157 32.8677 31.7732Z" fill="#373735"/>
<path d="M32.918 31.7031C32.9346 31.7319 32.9471 31.7483 32.9595 31.7688C32.9886 31.7524 32.9969 31.736 32.918 31.7031Z" fill="#373735"/>
<path d="M32.7397 31.543C32.7772 31.5758 32.8063 31.6169 32.827 31.6539C32.8229 31.6333 32.827 31.621 32.8312 31.621C32.8146 31.6087 32.7855 31.584 32.7397 31.543Z" fill="#373735"/>
<path d="M9.15303 10.5678C9.15303 10.5596 9.14887 10.5514 9.15303 10.5432C9.03663 10.535 9.07405 10.5514 9.15303 10.5678Z" fill="#373735"/>
<path d="M23.7686 25.4179C23.7724 25.4179 23.7762 25.4179 23.7801 25.4179C23.7801 25.414 23.7762 25.4101 23.7762 25.4062L23.7686 25.4179Z" fill="#373735"/>
<path d="M23.4531 25.2911C23.7067 25.2295 23.7441 25.3034 23.7815 25.4061L24.0767 24.9707L23.4531 25.2911Z" fill="#373735"/>
<path d="M14.7149 16.7548L14.7565 17.0219C14.3782 17.0219 14.3034 16.8206 14.2909 17.1246C14.7108 16.7507 14.9436 17.6873 15.3634 17.3176L15.3842 17.5025C15.3593 17.4696 15.3302 17.486 15.3052 17.4532C15.3177 17.8434 15.7458 17.3176 15.9454 17.6298C16.0036 17.7489 16.0119 17.8681 15.8996 17.8558L16.1989 17.9584C16.2488 18.0242 16.1657 18.0776 16.1158 18.0118L16.4567 18.283L16.4442 18.2912C16.5523 18.2748 16.7477 18.2748 16.8391 18.283C16.8599 18.4185 16.756 18.2871 16.7269 18.3569L16.9929 18.4308C16.9597 18.6034 16.7186 18.5623 16.6146 18.4308C16.3735 18.9813 16.8557 18.4719 16.968 19.0429L16.756 18.932C16.6354 19.2565 16.8391 19.3017 16.8807 19.6221C16.9098 19.5071 16.8724 18.9115 17.155 18.9936C17.1758 19.0758 17.2299 19.1579 17.4128 19.1785C17.2714 19.3181 17.4044 19.3798 17.5333 19.4948L17.3379 19.6714C17.525 19.7495 17.6081 19.6427 17.7703 19.6345C17.8991 19.7988 17.7827 19.9713 17.6954 20.1274C17.8991 20.3903 17.7661 19.7372 18.082 19.9754C18.2067 20.2383 18.4187 20.2999 18.7679 20.4191C18.8386 20.6203 18.6307 20.5094 18.6224 20.6121L18.8926 20.5834C18.9176 20.6162 18.8635 20.6532 18.8344 20.6696C18.9965 20.7148 19.0298 20.493 19.2418 20.5998C19.4912 20.4396 19.2709 21.2242 19.7032 21.1913C19.6991 21.294 19.566 21.2817 19.5078 21.368C19.936 21.4871 19.8529 21.4871 20.2852 21.5035L20.3517 21.8157C20.3517 21.5364 20.7009 21.5487 20.9918 21.5693C21.0085 21.4542 21.0293 21.3515 21.0251 21.294L21.3784 21.4419C21.3784 21.5035 21.287 21.5405 21.1664 21.5775C21.1997 21.5775 21.2288 21.5816 21.2579 21.5775C21.2787 21.7336 21.1249 21.7952 20.9544 21.8363C20.9627 21.7705 20.9711 21.7007 20.9794 21.6309C20.8048 21.6843 20.6177 21.75 20.5221 21.8732C20.5595 21.8691 20.6094 21.8814 20.6551 21.9061C20.6094 21.9225 20.5678 21.939 20.5595 21.9636C20.5471 21.9924 20.6177 21.9759 20.705 21.9677L20.5512 22.2306L20.6468 22.1608L20.8422 22.6168C21.287 22.6414 21.8024 22.5346 22.2639 22.818C22.0186 22.8797 21.9937 23.0481 21.8066 23.2206C21.898 22.929 21.4366 23.0152 21.2828 22.7852C21.3618 22.9043 21.2537 22.97 21.1997 22.9741L21.7193 23.1426C21.5613 23.2822 21.6819 23.3233 21.711 23.4753C21.9355 23.1179 22.1641 23.5369 22.3927 23.5862C22.3013 23.693 22.1682 23.7587 22.0228 23.5657C21.9895 23.9723 22.613 23.463 22.6089 23.8327C22.5632 23.7957 22.559 23.7546 22.4925 23.7916C22.6795 23.7998 22.8458 24.1038 22.7045 24.1367L22.6588 24.0956C22.8999 24.4037 23.5026 24.9336 23.7936 24.7241C23.7645 24.757 23.4569 24.987 23.3904 25.0199L24.7247 24.6789C24.467 24.8473 24.122 25.5169 23.7728 25.4101C23.8102 25.5046 23.8559 25.6196 24.0679 25.6853C24.0555 25.6114 24.2675 25.2663 24.3465 25.3074C24.2758 25.71 24.334 25.5498 24.3423 25.9564C24.3215 25.8455 24.7331 25.5867 24.8287 25.7018C24.7621 25.7346 24.5044 26.0386 24.4296 26.0345L25.024 25.9688C24.8993 25.9606 24.7331 26.2358 24.6998 26.3837C24.7372 26.2933 24.9243 26.6178 25.0282 26.6548L24.9908 26.4658C25.2402 26.8109 25.7515 26.2974 26.03 26.6096C25.9261 26.6425 25.5229 26.9382 25.6309 27.1272C25.8679 27.0286 26.7533 26.626 27.1441 26.7575L27.0983 26.9013L27.4101 26.9916C27.0277 27.119 26.1422 27.2997 25.739 27.3161C25.7764 27.501 25.6559 27.4599 25.8346 27.616C25.8014 27.7639 25.606 27.6612 25.552 27.616L25.8845 28.0597C26.0633 27.8461 26.3833 28.1583 26.533 27.9816L25.9053 27.7639C26.084 27.5503 26.7117 27.4517 26.9528 27.7598C26.9445 27.9077 26.5496 28.0556 26.4873 28.1254C26.5912 28.0925 26.8822 28.2568 26.8572 28.3308L26.6328 28.3185C26.7117 28.5444 27.1482 28.3102 27.1441 28.68C27.1939 28.7539 27.0817 29.1195 27.2106 29.0168C27.3311 28.6923 28.0087 27.9816 28.2456 27.883C28.2539 27.92 28.3662 28.4294 28.3288 28.6101C28.2581 28.8895 27.751 28.8689 27.6886 29.1072C27.7468 29.0579 27.8715 29.0497 27.9172 29.0538C27.938 29.1647 27.7219 29.1934 27.8923 29.3126C28.1168 29.14 28.1708 29.6248 28.1292 29.214C28.3288 29.3002 28.2415 29.4029 28.4161 29.5631C28.4909 29.3824 29.0063 29.2756 29.2059 29.3619C29.1477 29.4029 29.1103 29.5015 29.0978 29.5467C29.3721 29.8548 29.4387 30.0972 29.7089 30.3724C29.6839 30.4463 29.7587 30.6353 29.6174 30.6641C29.6922 30.6682 29.7962 30.6353 29.8834 30.7133C29.8751 31.0461 29.6673 30.5531 29.5842 30.8818C29.713 30.7791 29.9624 30.9393 30.1536 30.9845C30.295 30.7709 29.9125 30.6764 29.7172 30.6312C29.9666 30.3847 30.4322 30.3354 30.8354 30.5038C31.1222 30.6682 30.773 30.7585 30.8478 30.7626C31.2303 31.2268 31.646 30.6928 31.8206 31.2186C31.8039 31.5144 31.5129 31.5349 31.4298 31.6787C31.1846 31.5555 31.2469 31.3008 31.1139 31.1816L31.1929 31.4076C31.0806 31.3994 30.9185 31.3172 30.8977 31.2063C30.8728 31.461 31.5919 31.9457 31.7873 32.3976C31.8995 32.4017 32.0533 32.4469 32.07 32.3401L31.9453 32.2579C31.9785 32.0361 32.3194 32.2784 32.2446 32.0895C32.4732 32.1388 32.7725 32.1552 32.8972 32.4181L32.7559 32.6317C32.8057 32.5742 32.7351 32.3976 32.6228 32.3976C32.785 32.3976 32.681 32.9357 33.0053 32.7919L32.9928 32.5331C33.2214 32.5824 33.5872 32.566 33.7036 32.7919C33.8034 32.5372 33.6413 32.7714 33.7286 32.4428C33.5748 32.8042 33.2963 31.9909 33.1923 32.4304C33.3087 32.0648 33.0759 32.1141 33.1134 31.7444C33.0593 31.8101 33.0593 31.9128 32.9429 31.7403C32.918 31.7526 32.8806 31.7567 32.8598 31.7608C32.8556 31.7567 32.8556 31.7526 32.8556 31.7485C32.8556 31.7526 32.8556 31.7567 32.8556 31.765C32.839 31.7691 32.839 31.7691 32.8556 31.7691C32.8639 31.8307 32.8598 31.8882 32.839 31.9334C32.6312 31.995 32.4025 31.7608 32.2529 31.7567C32.1947 31.6417 32.3568 31.7239 32.3734 31.6171L32.149 31.6047C32.2695 31.461 32.1365 31.1611 32.4192 31.2843L32.2404 31.0954C32.2072 30.9146 32.0866 30.738 31.9411 30.7051C31.8829 30.5901 31.5753 30.6312 31.7541 30.6065L31.3841 30.4011L31.4132 30.3642C31.1471 30.0684 30.6109 30.0027 30.5236 29.444C30.3947 29.3824 30.2534 29.3249 30.1329 29.1277L30.216 28.9839C30.0539 28.9018 29.9624 28.5074 29.7878 28.5731C29.9624 28.1377 29.2599 27.9159 29.0978 27.6489L28.9565 27.8132C28.8151 27.6571 28.6322 27.5585 28.387 27.4353L28.2664 27.5749C28.0004 27.5256 27.9505 27.0779 27.6845 26.8437C27.751 26.8109 27.8008 26.8889 27.8175 26.9629C27.8133 26.3713 26.9653 26.548 26.9113 26.0632C26.7949 26.0427 26.7616 25.977 26.7491 25.8989C26.7575 25.903 26.7658 25.9072 26.7741 25.9072C26.7699 25.8989 26.7575 25.8866 26.7491 25.8784C26.7408 25.825 26.7367 25.7716 26.7242 25.7141C26.72 25.7757 26.72 25.825 26.7325 25.862C26.6785 25.8127 26.5829 25.7511 26.4706 25.7059L26.5787 25.5333C26.5704 25.5292 26.5662 25.5251 26.5579 25.521C26.533 25.3937 26.4291 25.5251 26.3626 25.673C26.3002 25.6566 26.2379 25.6484 26.1755 25.6566C26.3418 25.369 25.8928 25.5292 26.0508 25.2047C25.8804 25.2704 25.5686 24.9048 25.2776 25.1102C25.3067 25.0774 25.2984 25.0363 25.3441 25.0774C25.2859 24.9623 25.2277 24.8473 25.0781 24.8432L25.2194 24.6296L24.7871 24.683C24.7829 24.4612 24.7954 24.3503 25.049 24.3256C24.5585 24.264 24.7455 24.1819 24.2966 24.1613L24.4254 24.0586C24.3381 23.9806 24.0472 24.0011 24.0929 23.8573C24.1261 23.4548 23.1908 22.9084 22.9165 22.2265C22.6671 22.6578 22.8458 21.8527 22.559 22.0951C22.613 21.9883 22.5923 21.8773 22.7377 21.8815C22.4135 21.7171 22.4966 21.3885 22.1017 21.4419C22.1558 21.3351 22.2722 21.3762 22.2971 21.3064C22.2597 21.3022 22.1475 21.2981 22.1724 21.2242C22.1973 21.1503 22.2763 21.1913 22.3512 21.1954C22.0851 20.9613 21.8108 21.1831 21.5572 21.3967C21.5406 21.1626 21.4616 21.1133 21.2163 21.1749C21.2496 21.0558 21.2537 20.9038 21.4366 21.0311C21.3618 20.9325 21.0126 20.3903 20.8131 20.5669C20.8339 20.493 20.705 20.4314 20.6593 20.4314C20.4722 20.226 20.4722 20.1931 20.2602 20.0165L20.2852 20.0986C19.9817 20.2465 20.0732 19.9877 19.8903 19.8604L19.9194 19.8398C19.724 19.3223 19.6866 19.7659 19.5203 19.2319L19.3956 19.388C19.0589 19.655 19.2626 18.9033 18.9383 18.8129L18.93 18.9649C18.7139 18.9567 19.0298 18.246 18.955 18.0981C18.955 18.0488 19.0381 18.094 19.088 18.1104C18.9716 17.6421 18.8635 18.2542 18.6016 18.0817C18.6598 17.942 18.9051 17.8845 18.7762 17.7202C18.7845 17.5682 18.0238 17.6175 18.0155 17.2272C17.9823 17.3464 17.949 17.4655 17.791 17.4244C17.6081 17.2971 17.658 16.722 17.2756 16.8206C17.2756 16.7795 17.2881 16.7548 17.3088 16.7343C17.1259 16.6768 16.8183 16.455 16.6146 16.5125C16.9929 15.9209 15.6336 16.0113 16.0867 15.5718L15.696 15.2308L15.75 15.1939C15.5463 14.931 15.3551 14.9556 15.1639 14.9803C15.1389 14.8981 15.2221 14.894 15.2512 14.8734C14.9976 14.4462 14.9436 14.4298 14.4323 14.3682L14.5487 14.1956C14.3865 14.2039 14.2826 13.4809 13.7755 13.3166C13.7963 13.3042 13.8295 13.2837 13.8794 13.2878C13.3307 13.0824 13.3764 11.9938 12.7072 12.38L12.3289 12.2567C12.6115 12.6182 12.0504 12.4375 12.0961 12.6552C11.9381 12.5607 11.9257 12.1705 12.1127 12.2978V12.3471C12.4453 12.1294 11.8093 11.8542 12.0046 11.6775C11.3562 11.0614 10.8864 10.2973 10.3045 9.69754L10.159 9.97688L9.9636 9.75916C9.95944 9.65647 10.0592 9.52091 10.1964 9.677C10.2421 9.47983 9.84721 9.53323 9.79317 9.57431C9.58948 9.20049 10.159 9.43875 10.0717 9.34427L9.9345 9.24157L9.93866 9.29497C9.7516 9.28676 9.65183 9.36892 9.4814 9.17995C9.41073 9.02796 9.55622 8.99099 9.51881 8.9417C9.53544 8.92527 9.52713 8.90473 9.45646 8.86776L9.2112 8.59253L9.14469 8.86365C8.94516 8.83079 8.90775 8.61307 8.83708 8.92116C8.95763 8.45286 7.96829 7.84901 7.9475 7.65183C7.66068 7.61486 7.50272 7.45055 7.31981 7.24104C7.33228 7.3232 7.17432 7.54092 7.02467 7.35196C7.48193 7.02333 6.88334 6.87134 7.02467 6.45644C6.96232 6.76453 6.49259 6.02101 6.41777 6.47698C6.30553 6.30445 6.55494 6.32089 6.54247 6.12371C6.0478 5.93885 5.88984 5.28571 5.42011 4.92011C5.36192 4.96529 5.3536 5.11317 5.18733 5.10085L5.22474 4.62434C5.11666 4.56683 4.85062 4.84206 4.87556 4.51754C4.85477 4.58326 4.82152 4.67774 4.7467 4.64077C4.17304 3.56451 2.85531 3.16605 2.4895 1.87208C2.50197 2.08158 2.41883 2.01996 2.32738 1.9378C2.36064 2.01585 2.19852 2.06104 2.14032 2.14319L1.98236 1.60096C1.72463 1.73241 1.59577 1.24357 1.3713 1.39146L1.51679 1.46951C1.15098 1.53934 1.23412 2.15552 0.930664 2.41431C1.34635 2.33216 0.997174 3.21124 1.62487 3.12497C1.62902 3.23999 1.48353 3.16605 1.45028 3.26053C1.64149 3.21124 1.74957 3.26464 1.84934 3.47414L1.80361 3.48236C2.26503 3.88082 2.33154 4.18069 2.73891 4.73936L2.84284 4.56683C2.93013 4.69007 2.90519 4.75168 2.92182 4.83795C3.25437 4.74758 2.63915 4.53807 2.98417 4.41484C2.83868 4.82973 3.71578 5.14604 3.48716 5.55682C3.64512 5.71703 3.59939 5.35143 3.76151 5.51164L3.71578 5.63898L3.86959 5.56915C3.95688 5.69238 3.89869 5.85259 3.83218 5.92653C3.81555 5.89367 3.74073 5.87313 3.70331 5.85259C3.73657 6.09085 4.12316 6.19765 4.13563 6.2757L4.03587 6.07031C4.55548 6.42358 4.97532 7.06441 5.57807 7.30677L5.61133 7.20818C6.05612 7.40947 5.79839 7.53681 6.20992 7.83258L6.17667 7.84079C6.31385 7.8449 6.44271 7.90652 6.53 8.00922C6.36373 7.99689 6.55079 8.32552 6.3471 8.29266C6.8293 8.51037 6.62146 8.36249 7.0995 8.35017L7.04546 8.51037C7.22421 8.48983 7.2824 8.44465 7.48609 8.59253C7.24915 8.54324 7.43205 8.86776 7.14522 8.83079C7.27824 9.43464 7.93919 9.13888 7.76045 9.65236C8.23433 9.52501 7.60664 9.16763 7.7646 9.20049C7.78123 9.02386 8.13041 9.11834 8.2177 9.26211C8.32994 9.38535 8.0348 9.84132 8.33825 10.133C8.30915 10.1042 8.28421 10.1248 8.25512 10.0919C8.28837 10.2768 8.57935 10.2069 8.59182 10.4657C8.84955 10.363 8.7581 10.6506 9.01583 10.4452L8.68743 10.2275C8.90359 10.3219 9.32344 10.1946 9.44399 10.5807C9.37748 10.6054 9.2403 10.5931 9.15301 10.5766C9.16132 10.7204 9.34422 10.6752 9.34838 10.819C9.09481 11.0285 8.96595 10.5397 8.62092 10.552C8.60429 10.7286 9.10312 10.6958 8.77057 10.8642C9.2112 10.667 9.02414 11.1969 9.47309 11.1517L9.31928 11.275C9.37332 11.2832 9.50634 11.2873 9.56038 11.3489L9.27355 11.4228C9.59364 11.4311 9.45646 11.8665 9.69756 11.9404C9.36501 11.62 9.79317 11.7022 9.75576 11.4639C10.3502 11.6816 9.62274 12.0555 10.1465 12.4375C10.0634 12.3964 10.001 12.1253 10.159 12.1582C10.2172 12.2732 10.2795 12.4375 10.2587 12.5607C10.5871 12.8318 10.3543 12.3718 10.5705 12.4169C10.504 12.6881 10.7867 12.495 10.9737 12.573L10.8324 12.7127C11.086 13.1399 11.219 12.5114 11.4185 12.9263L11.0901 12.992L11.3021 13.103L11.1067 13.2303C11.4019 13.2837 11.4268 13.37 11.5515 13.5836C11.6097 13.4439 11.83 13.3494 11.988 13.4973C12.0088 13.6822 11.7968 13.5713 12.0296 13.7643C11.8924 13.8054 11.7261 13.8629 11.7635 13.6411C11.7095 13.6781 11.6264 13.6822 11.5723 13.715C11.5889 13.9204 11.83 14.0149 11.909 14.0888C11.8841 14.0519 11.855 14.0108 11.8591 13.9738L12.3663 14.0888C12.3621 14.1915 12.279 14.1956 12.2 14.1956C12.279 14.2449 12.3871 14.2203 12.491 14.3025C12.3497 14.3928 12.2374 14.5161 12.0545 14.438L12.4785 14.6064C12.4494 14.6763 12.4952 14.894 12.412 14.8981C12.5076 15.1281 13.0397 15.0788 13.1686 15.3828C13.2018 15.3705 13.2475 15.3746 13.3099 15.4034C13.4886 15.6334 13.5302 15.9538 13.9334 16.036L13.8669 16.3769C14.1039 16.5207 13.9417 15.9333 14.3367 16.1715C14.6276 16.3276 14.2452 16.4303 14.266 16.5618C14.4821 16.57 14.8895 16.5536 14.9269 16.9233C14.8189 16.8863 14.7939 16.8 14.7149 16.7548ZM17.1592 18.9895C17.0844 18.9731 16.9015 18.9731 16.9513 18.8581C17.1675 18.7513 17.1301 18.8663 17.1592 18.9895ZM21.0791 22.1895C21.0002 22.2019 20.9711 22.1279 20.9627 22.017C21.0209 22.0458 21.0625 22.0992 21.0791 22.1895ZM32.0326 31.0625C32.0284 31.0625 32.0243 31.0625 32.0201 31.0625C31.9744 30.9064 31.991 30.9639 32.0326 31.0625ZM32.1822 31.3295C32.2238 31.3295 32.2404 31.309 32.2529 31.2802C32.203 31.3008 32.1531 31.2556 32.1074 31.194C32.0866 31.2474 32.0908 31.3008 32.1822 31.3295ZM9.44399 8.96635L9.44814 9.04439C9.31097 8.9951 9.37332 8.98278 9.44399 8.96635Z" fill="#373735"/>
<path d="M20.4805 21.9792C20.4929 21.9423 20.5137 21.9135 20.5386 21.8848C20.4971 21.8889 20.468 21.9135 20.4805 21.9792Z" fill="#373735"/>
<path d="M13.1766 15.3832C13.1766 15.3791 13.1724 15.3791 13.1724 15.375C13.1599 15.3791 13.1475 15.3873 13.1392 15.3914L13.1766 15.3832Z" fill="#373735"/>
<path d="M27.7096 29.2831C27.6846 29.2214 27.6888 29.1721 27.6971 29.127C27.6597 29.1598 27.6514 29.2091 27.7096 29.2831Z" fill="#373735"/>
<path d="M33.5459 32.2002L33.3755 32.1016C33.4462 32.1591 33.442 32.2125 33.4503 32.27C33.4794 32.233 33.5002 32.1591 33.5459 32.2002Z" fill="#373735"/>
<path d="M33.8408 34.2262C33.8782 34.2303 33.8865 34.2672 33.9197 34.2672L33.9821 34.1974C33.8948 34.1194 33.7826 34.1153 33.8408 34.2262Z" fill="#373735"/>
<path d="M33.1967 32.7871C33.0886 32.9145 33.2133 32.9596 33.3297 33.0295C33.3255 33.0254 33.3172 33.0213 33.313 33.013C33.5084 32.8775 33.3546 32.8323 33.1967 32.7871Z" fill="#373735"/>
<path d="M33.3589 33.0508C33.3921 33.0754 33.4254 33.1001 33.4503 33.1329C33.5252 33.0795 33.4254 33.0836 33.3589 33.0508Z" fill="#373735"/>
<path d="M32.5318 31.5178C32.5443 31.5918 32.7105 31.3946 32.6898 31.4685C32.8893 31.3658 32.2076 31.3535 32.5318 31.5178Z" fill="#373735"/>
<path d="M32.8809 33.2528L32.9973 33.0762L32.8228 33.1378L32.8809 33.2528Z" fill="#373735"/>
<path d="M32.2402 32.4059L32.3525 32.5948C32.3733 32.5702 32.4107 32.5743 32.4439 32.5866C32.3566 32.488 32.2818 32.3607 32.2402 32.4059Z" fill="#373735"/>
<path d="M32.4443 32.5859C32.4901 32.6352 32.5399 32.6804 32.5898 32.6804C32.5607 32.6599 32.5025 32.6065 32.4443 32.5859Z" fill="#373735"/>
<path d="M32.6308 33.0913L32.6183 33.0174L32.5186 32.9023L32.6308 33.0913Z" fill="#373735"/>
<path d="M30.6445 30.7717L30.4367 30.6484C30.3702 30.6813 30.3827 30.7552 30.4658 30.7963C30.5365 30.8004 30.6196 30.8415 30.6445 30.7717Z" fill="#373735"/>
<path d="M30.74 31.6612C30.7275 31.5873 30.7566 31.5503 30.7774 31.4805L30.5903 31.6571L30.74 31.6612Z" fill="#373735"/>
<path d="M30.2162 31.2274C30.1497 31.2603 29.8296 31.1329 30.05 31.3301C30.1165 31.2972 30.3243 31.4205 30.2162 31.2274Z" fill="#373735"/>
<path d="M27.9546 28.5361L28.0003 28.5772L28.2913 28.2773L27.9546 28.5361Z" fill="#373735"/>
<path d="M25.0449 27.0783C25.1696 27.3412 25.2777 26.9427 25.365 27.2056C25.4814 27.181 25.2943 26.992 25.4024 26.9756C25.207 26.9304 25.1863 26.8277 25.0449 27.0783Z" fill="#373735"/>
<path d="M25.3979 26.9741C25.427 26.9824 25.4645 26.9865 25.5019 26.9906C25.452 26.9741 25.4187 26.97 25.3979 26.9741Z" fill="#373735"/>
<path d="M1.90345 1.21826L1.8411 1.0293L1.82031 1.21004L1.90345 1.21826Z" fill="#373735"/>
<path d="M1.43788 1.19819L1.6 0.980469L1.35059 1.07495C1.388 1.09549 1.46282 1.13246 1.43788 1.19819Z" fill="#373735"/>
<path d="M17.126 19.7171L17.18 19.6801C17.2091 19.6103 17.1842 19.5774 17.1343 19.5117L17.126 19.7171Z" fill="#373735"/>
<path d="M15.5586 17.8843L15.5877 17.9171L15.7041 17.6953L15.5586 17.8843Z" fill="#373735"/>
<path d="M13.9087 16.6854C13.9586 16.7512 14.0667 16.7799 14.1207 16.8457C13.9586 16.7512 14.1082 16.4595 13.9087 16.6854Z" fill="#373735"/>
</g>
<defs>
<clipPath id="clip0">
<rect x="0.689453" y="0.980469" width="39" height="39" fill="white"/>
</clipPath>
</defs>
</svg>
